<?xml version="1.0" encoding="UTF-8"?>
<!DOCTYPE svg PUBLIC "-//W3C//DTD SVG 1.1//EN" "http://www.w3.org/Graphics/SVG/1.1/DTD/svg11.dtd">
<svg xmlns="http://www.w3.org/2000/svg" xml:space="preserve" width="210mm" height="297mm" version="1.1" style="shape-rendering:geometricPrecision; text-rendering:geometricPrecision; image-rendering:optimizeQuality; fill-rule:evenodd; clip-rule:evenodd"
viewBox="0 0 21000 29700"
 xmlns:xlink="http://www.w3.org/1999/xlink">
 <defs>
  <style type="text/css">
   <![CDATA[
    .fil0 {fill:black}
   ]]>
  </style>
 </defs>
 <g id="Слой_x0020_1">
  <metadata id="CorelCorpID_0Corel-Layer"/>
  <path class="fil0" d="M7459 7240c-1465,0 -2930,10 -4394,-1 -216,-1 -370,123 -370,271 0,182 19,237 160,352l1656 1316c158,128 304,248 465,373l1299 1033c36,30 94,65 117,97 -23,102 -70,216 -105,321 -468,1405 -900,2811 -1375,4212 -56,164 -42,342 113,446 170,114 328,11 471,-60 282,-139 553,-306 835,-445l554 -299c102,-52 177,-95 280,-147 54,-27 85,-50 137,-76 282,-139 552,-306 834,-445l555 -299c56,-28 86,-43 139,-74l833 -447 3175 1701c55,28 85,50 137,76 96,48 182,94 280,147 162,87 728,422 858,422 50,0 139,-25 170,-43l71 -58c2,-2 5,-5 7,-7l31 -39c72,-104 71,-204 29,-331l-1280 -3910c-39,-118 -201,-573 -208,-660 64,-17 424,-326 472,-366l2810 -2238c82,-65 153,-122 238,-189 127,-100 177,-171 177,-335 0,-169 -149,-298 -327,-299l-1906 1c-207,0 -390,-15 -611,-15 -640,0 -1280,0 -1920,0 -22,-95 -82,-212 -123,-303l-642 -1561c-43,-108 -87,-210 -128,-313 -42,-104 -86,-212 -130,-311 -179,-405 -343,-832 -510,-1239 -75,-183 -316,-809 -389,-934 -121,-209 -426,-203 -558,-9 -73,108 -348,829 -390,933 -168,421 -344,835 -511,1251 -316,784 -649,1554 -961,2338 -23,56 -42,114 -65,163z"/>
 </g>
</svg>
